<?xml version="1.0" standalone="no"?>
<!DOCTYPE svg PUBLIC "-//W3C//DTD SVG 20010904//EN"
 "http://www.w3.org/TR/2001/REC-SVG-20010904/DTD/svg10.dtd">
<svg version="1.0" xmlns="http://www.w3.org/2000/svg"
 width="500.000000pt" height="500.000000pt" viewBox="0 0 500.000000 500.000000"
 preserveAspectRatio="xMidYMid meet">

<g transform="translate(0.000000,500.000000) scale(0.100000,-0.100000)"
fill="#000000" stroke="none">
<path d="M0 2500 l0 -2500 2500 0 2500 0 0 2500 0 2500 -2500 0 -2500 0 0
-2500z m2640 518 c62 -23 110 -108 110 -195 l0 -33 -85 0 -85 0 0 33 c0 43
-12 59 -41 55 -20 -2 -25 -10 -27 -39 -3 -35 3 -43 97 -136 101 -100 138 -157
143 -218 1 -16 5 98 8 255 l5 285 83 3 82 3 0 -405 c0 -222 -3 -411 -6 -420
-5 -12 -21 -16 -65 -16 -64 0 -75 -11 -30 -30 29 -11 48 -9 101 11 l25 9 -3
425 -2 425 85 0 85 0 0 -350 0 -350 85 0 85 0 0 -65 c0 -39 4 -65 10 -65 11 0
70 28 70 33 0 1 -22 180 -50 397 -27 217 -50 396 -50 398 0 1 36 2 80 2 44 0
80 -1 80 -2 35 -330 59 -530 62 -533 2 -3 14 109 27 248 12 138 25 260 27 270
5 14 18 17 85 17 77 0 79 -1 74 -22 -2 -13 -25 -192 -50 -398 -25 -206 -48
-386 -51 -398 -5 -23 -7 -24 -104 -20 -106 3 -124 -7 -54 -31 30 -10 51 -11
90 -3 81 16 154 51 158 76 3 11 19 176 36 366 17 190 34 364 37 388 l6 43 141
-3 141 -3 37 -380 c20 -209 37 -397 37 -418 l1 -38 -77 3 -78 3 -3 45 c-5 88
-7 91 -60 88 -46 -3 -47 -4 -50 -38 -1 -19 -5 -50 -8 -67 l-5 -33 -78 0 c-63
0 -90 -5 -135 -26 -75 -34 -153 -42 -210 -20 -27 10 -48 26 -51 37 -5 14 -12
18 -23 13 -59 -25 -104 -36 -176 -43 -86 -9 -119 0 -70 20 29 12 29 12 5 18
-21 6 -22 8 -8 20 9 7 22 9 29 5 10 -5 11 -4 1 6 -11 11 -17 9 -39 -11 -35
-33 -42 -47 -59 -127 -19 -92 -44 -152 -62 -152 -23 0 -12 70 22 150 15 36 29
77 32 92 l5 28 -68 -36 c-58 -30 -76 -35 -114 -31 -42 5 -71 26 -83 60 -3 9
-9 8 -23 -4 -37 -32 -104 -59 -145 -59 -33 0 -47 6 -69 30 -15 17 -34 30 -42
30 -10 0 -9 3 2 10 31 20 0 9 -73 -26 -119 -56 -235 -56 -272 0 -14 22 -20 22
-125 18 -78 -3 -110 -1 -110 7 0 6 -4 11 -8 11 -4 0 -6 -55 -4 -122 4 -131 -6
-169 -42 -155 -36 14 -10 238 44 377 26 68 32 107 59 393 17 174 31 319 31
322 0 3 64 4 143 3 l142 -3 37 -385 c20 -212 37 -400 37 -417 l1 -33 -76 0
c-47 0 -73 4 -69 10 4 6 -5 10 -20 10 -39 0 -28 -32 15 -47 44 -16 119 -8 182
19 26 11 48 22 48 23 0 2 -13 17 -29 33 -37 36 -51 87 -51 185 l0 77 80 0 c76
0 80 -1 80 -22 0 -21 2 -21 19 7 l19 30 -78 80 c-102 104 -120 139 -120 230 0
115 49 188 137 205 41 9 113 3 153 -12z m-820 -13 c67 -39 76 -73 83 -331 7
-258 -1 -347 -38 -410 -36 -62 -75 -74 -240 -74 l-135 0 0 421 0 421 148 -4
c125 -2 152 -6 182 -23z m-796 -408 c5 -8 7 -21 3 -29 -5 -14 -488 -278 -507
-278 -10 0 -20 38 -19 75 0 28 9 36 164 124 141 81 162 96 147 106 -9 6 -81
49 -159 94 -79 46 -145 86 -147 90 -3 4 -2 26 1 49 l6 42 251 -130 c138 -71
255 -135 260 -143z m336 -297 c0 -19 -7 -20 -160 -20 -153 0 -160 1 -160 20 0
19 7 20 160 20 153 0 160 -1 160 -20z"/>
<path d="M2112 2698 c-18 -252 -19 -238 24 -238 l37 0 -6 53 c-4 28 -12 121
-18 205 -7 83 -15 152 -19 152 -3 0 -11 -78 -18 -172z"/>
<path d="M3892 2698 c-18 -252 -19 -238 24 -238 l37 0 -6 53 c-4 28 -12 121
-18 205 -7 83 -15 152 -19 152 -3 0 -11 -78 -18 -172z"/>
<path d="M2540 2448 c-23 -51 -26 -108 -7 -108 14 0 30 43 42 113 10 51 -11
49 -35 -5z"/>
<path d="M2751 2374 c-1 -41 -27 -113 -49 -137 -27 -30 -69 -48 -117 -50 -41
-2 -42 -3 -28 -19 30 -33 111 -12 181 46 35 30 39 55 23 146 -7 37 -9 40 -10
14z"/>
<path d="M2581 2383 c0 -6 -4 -20 -7 -30 -5 -14 -4 -15 5 -7 7 7 11 20 8 30
-3 11 -5 14 -6 7z"/>
<path d="M2078 2278 c-2 -29 -3 -55 -2 -57 7 -9 55 11 84 35 20 18 30 34 28
48 -3 18 -11 21 -55 24 l-51 3 -4 -53z"/>
<path d="M2203 2255 c-34 -14 -43 -25 -20 -25 6 0 23 9 37 20 30 23 26 24 -17
5z"/>
<path d="M3424 2245 c-24 -18 -7 -19 26 0 16 9 19 14 9 15 -8 0 -24 -7 -35
-15z"/>
<path d="M1905 2240 c-3 -5 -1 -10 4 -10 6 0 11 5 11 10 0 6 -2 10 -4 10 -3 0
-8 -4 -11 -10z"/>
<path d="M3065 2239 c-4 -6 -5 -12 -2 -15 2 -3 7 2 10 11 7 17 1 20 -8 4z"/>
<path d="M3155 2179 c-5 -7 8 -8 41 -3 64 9 68 14 11 14 -25 0 -49 -5 -52 -11z"/>
<path d="M1868 2100 c-4 -14 -7 -52 -7 -85 1 -55 2 -57 10 -27 6 19 9 57 7 85
-2 41 -5 47 -10 27z"/>
<path d="M1660 2610 l0 -270 30 0 c19 0 33 7 40 19 13 25 14 460 0 495 -7 20
-16 26 -40 26 l-30 0 0 -270z"/>
</g>
</svg>
