<?xml version="1.0" standalone="no"?>
<!DOCTYPE svg PUBLIC "-//W3C//DTD SVG 20010904//EN"
 "http://www.w3.org/TR/2001/REC-SVG-20010904/DTD/svg10.dtd">
<svg version="1.0" xmlns="http://www.w3.org/2000/svg"
 width="500.000000pt" height="500.000000pt" viewBox="0 0 500.000000 500.000000"
 preserveAspectRatio="xMidYMid meet">

<g transform="translate(0.000000,500.000000) scale(0.100000,-0.100000)"
fill="#000000" stroke="none">
<path d="M2487 3030 c-87 -17 -137 -91 -137 -202 0 -38 7 -85 15 -105 21 -51
171 -201 204 -205 25 -3 26 -5 24 -68 -1 -53 -8 -79 -38 -139 -53 -107 -40
-140 50 -127 77 12 129 71 145 165 7 42 8 40 9 -31 0 -45 5 -78 11 -78 6 0 10
5 10 10 0 6 5 10 11 10 8 0 10 -12 6 -35 l-6 -35 70 0 69 0 0 420 0 421 -82
-3 -83 -3 -5 -280 c-3 -154 -7 -269 -8 -255 -6 56 -45 115 -143 213 -93 94
-100 103 -97 136 2 29 8 37 27 39 29 4 41 -12 41 -55 l0 -33 85 0 85 0 0 33
c0 87 -48 172 -110 195 -40 15 -112 21 -153 12z m323 -719 c0 -13 -29 -35 -37
-28 -7 8 15 37 28 37 5 0 9 -4 9 -9z"/>
<path d="M1490 2611 l0 -421 138 0 c123 0 143 2 182 23 35 17 51 34 70 72 l25
50 -3 280 c-2 267 -3 282 -25 325 -36 73 -66 84 -239 88 l-148 4 0 -421z m240
243 c14 -35 13 -470 0 -495 -7 -12 -21 -19 -40 -19 l-30 0 0 270 0 270 30 0
c24 0 33 -6 40 -26z"/>
<path d="M1990 3023 c0 -5 -13 -143 -30 -308 -35 -356 -35 -341 -15 -325 18
15 45 6 45 -14 0 -7 -19 -42 -41 -76 -33 -49 -39 -64 -28 -70 18 -12 135 -24
148 -15 6 3 11 28 11 55 0 27 4 51 9 55 6 3 28 3 50 -1 30 -5 41 -11 41 -24 0
-14 8 -17 38 -16 33 1 37 -2 37 -24 0 -18 -9 -29 -32 -40 -18 -8 -33 -18 -33
-22 0 -5 37 -8 83 -8 l83 0 -4 33 c-2 17 -20 205 -40 417 l-37 385 -143 3
c-78 1 -142 -1 -142 -5z m159 -305 c6 -84 14 -177 18 -205 l6 -53 -37 0 c-34
0 -36 2 -36 33 0 71 24 377 30 377 4 0 12 -69 19 -152z"/>
<path d="M2950 2610 c0 -350 2 -420 14 -420 7 0 32 18 55 40 40 39 41 40 41
14 l0 -25 26 20 c36 29 74 12 74 -34 0 -18 5 -20 65 -15 36 3 65 8 65 13 0 4
0 34 0 67 l0 60 -85 0 -85 0 0 350 0 350 -85 0 -85 0 0 -420z"/>
<path d="M3274 2993 c15 -93 86 -689 86 -719 0 -19 3 -34 7 -34 4 0 24 12 44
26 44 30 83 29 87 -2 4 -27 -20 -46 -65 -53 -20 -3 -35 -9 -34 -13 0 -5 3 -8
6 -8 3 0 50 0 105 0 l100 0 0 28 c0 27 85 731 95 785 l5 27 -80 0 c-66 0 -79
-3 -84 -17 -2 -10 -15 -132 -27 -270 -13 -139 -25 -251 -27 -249 -2 3 -57 475
-62 534 0 1 -36 2 -81 2 l-81 0 6 -37z"/>
<path d="M3770 3025 c0 -16 -70 -735 -75 -768 -5 -35 -4 -37 14 -27 36 19 46
10 16 -15 l-30 -25 77 0 77 0 5 33 c3 17 7 48 8 67 3 34 5 35 47 38 54 4 61
-5 61 -80 l0 -58 80 0 80 0 -1 38 c0 20 -17 208 -37 417 l-37 380 -142 3 c-79
1 -143 0 -143 -3z m159 -307 c6 -84 14 -177 18 -205 l6 -53 -37 0 c-34 0 -36
2 -36 33 0 71 24 377 30 377 4 0 12 -69 19 -152z"/>
<path d="M507 2827 c-4 -27 -2 -46 6 -54 7 -6 80 -50 162 -98 83 -48 151 -88
152 -89 1 -1 -72 -44 -163 -96 l-165 -95 5 -49 c3 -27 8 -51 10 -54 9 -8 507
259 513 275 4 9 2 22 -3 30 -5 8 -122 72 -260 143 l-251 130 -6 -43z"/>
<path d="M2350 2413 c0 -95 18 -151 59 -188 21 -18 24 -18 49 -3 24 15 28 24
33 90 4 40 10 99 14 131 l8 57 -82 0 -81 0 0 -87z"/>
<path d="M2565 2480 c3 -5 8 -10 11 -10 2 0 4 5 4 10 0 6 -5 10 -11 10 -5 0
-7 -4 -4 -10z"/>
<path d="M1943 2348 c-20 -26 -26 -41 -15 -34 12 7 36 46 29 46 -3 0 -9 -6
-14 -12z"/>
<path d="M2510 2320 c0 -16 4 -30 9 -30 12 0 24 37 16 50 -12 20 -25 10 -25
-20z"/>
<path d="M1040 2300 c0 -19 7 -20 160 -20 153 0 160 1 160 20 0 19 -7 20 -160
20 -153 0 -160 -1 -160 -20z"/>
<path d="M2195 2250 c-11 -13 -14 -20 -6 -20 18 0 51 19 51 30 0 17 -26 11
-45 -10z"/>
<path d="M3429 2250 c-13 -10 -19 -19 -12 -20 18 0 63 22 63 32 0 14 -27 9
-51 -12z"/>
<path d="M3092 2218 c-5 -7 -17 -28 -27 -47 l-17 -33 25 18 c14 11 22 23 19
28 -3 5 2 7 11 3 18 -7 42 17 32 33 -9 14 -30 13 -43 -2z"/>
<path d="M2477 2205 c-16 -12 -16 -13 8 -17 26 -5 30 -1 17 19 -5 8 -12 8 -25
-2z"/>
<path d="M1900 2200 c0 -5 14 -10 32 -10 36 0 35 4 -4 14 -17 4 -28 2 -28 -4z"/>
<path d="M3016 2191 c-4 -7 -5 -15 -2 -18 9 -9 19 4 14 18 -4 11 -6 11 -12 0z"/>
<path d="M1867 2076 c-4 -27 -6 -65 -6 -85 1 -20 6 -2 10 39 10 84 6 122 -4
46z"/>
</g>
</svg>
